<?xml version="1.0" standalone="no"?>
<!DOCTYPE svg PUBLIC "-//W3C//DTD SVG 20010904//EN"
 "http://www.w3.org/TR/2001/REC-SVG-20010904/DTD/svg10.dtd">
<svg version="1.0" xmlns="http://www.w3.org/2000/svg"
 width="1024.000000pt" height="1024.000000pt" viewBox="0 0 1024.000000 1024.000000"
 preserveAspectRatio="xMidYMid meet">

<g transform="translate(0.000000,1024.000000) scale(0.100000,-0.100000)"
fill="#000000" stroke="none">
<path d="M580 6350 c-20 -20 -20 -24 -18 -903 2 -580 6 -882 13 -882 6 1 119
145 252 320 l242 320 3 340 3 340 355 0 c344 0 357 -1 410 -22 70 -29 125 -74
153 -126 31 -59 31 -185 0 -242 -28 -54 -68 -89 -128 -117 -44 -20 -69 -23
-223 -26 -150 -3 -174 -6 -180 -21 -3 -9 -26 -47 -51 -86 -350 -547 -591 -929
-591 -939 0 -7 5 -17 11 -23 13 -13 54 6 359 167 216 115 270 136 322 126 58
-11 145 -84 267 -224 l112 -129 355 -6 c355 -6 394 -4 394 27 0 7 -121 174
-270 372 -148 197 -270 361 -270 364 0 3 30 21 68 40 87 45 216 171 265 260
61 113 79 187 79 330 0 146 -20 238 -78 352 -76 152 -175 253 -319 324 -159
78 -147 77 -872 81 -637 4 -642 4 -663 -17z m1087 -1240 c92 -118 280 -359
418 -535 265 -338 274 -350 257 -344 -9 4 -189 231 -650 824 -107 138 -201
251 -208 253 -8 2 -12 8 -8 13 3 6 10 9 15 7 4 -2 84 -100 176 -218z m-526
-333 c-10 -9 -11 -8 -5 6 3 10 9 15 12 12 3 -3 0 -11 -7 -18z m-294 -479 c-3
-8 -6 -5 -6 6 -1 11 2 17 5 13 3 -3 4 -12 1 -19z"/>
<path d="M2905 5698 c-3 -7 -4 -260 -3 -563 l3 -550 110 0 110 0 3 198 2 198
82 -3 82 -3 104 -197 104 -198 119 0 c65 0 120 4 124 9 3 5 -47 105 -112 222
-66 121 -112 214 -105 217 30 10 103 76 129 119 56 88 70 169 49 272 -26 124
-91 206 -205 260 -55 26 -59 26 -324 29 -214 3 -268 1 -272 -10z m502 -214
c51 -38 73 -81 73 -144 0 -66 -24 -110 -79 -147 -31 -21 -46 -23 -152 -23
l-119 0 0 171 0 171 124 -4 c108 -3 128 -6 153 -24z"/>
<path d="M4645 5698 c-3 -7 -4 -260 -3 -563 l3 -550 108 -3 c69 -2 107 1 107
8 0 5 0 255 0 555 0 300 0 550 0 555 0 16 -209 13 -215 -2z"/>
<path d="M4987 5704 c-10 -10 -8 -1096 1 -1112 6 -9 36 -12 113 -10 l104 3 0
560 0 560 -106 3 c-58 1 -108 -1 -112 -4z"/>
<path d="M6192 5613 l3 -98 268 -5 267 -5 -270 -374 -271 -374 3 -86 3 -86
410 0 410 0 0 100 0 100 -267 3 -267 2 265 366 264 365 0 95 0 94 -410 0 -411
0 3 -97z"/>
<path d="M4060 5417 c-118 -34 -199 -101 -224 -187 -9 -29 -13 -56 -10 -61 3
-5 49 -9 102 -9 l97 0 17 30 c31 55 129 77 203 46 42 -18 57 -45 53 -99 l-3
-42 -130 -12 c-180 -16 -244 -35 -305 -89 -55 -50 -73 -92 -73 -169 0 -67 30
-131 85 -181 110 -101 302 -99 406 6 l31 30 3 -47 3 -48 105 0 105 0 3 289 c3
340 -2 369 -74 446 -66 70 -145 103 -259 107 -53 2 -109 -3 -135 -10z m243
-519 c-16 -92 -88 -158 -171 -158 -141 0 -171 147 -37 179 22 5 79 9 127 10
l88 1 -7 -32z"/>
<path d="M7336 5410 c-117 -42 -207 -127 -247 -233 -21 -53 -24 -79 -24 -182
1 -150 20 -207 102 -295 219 -237 620 -133 692 180 26 110 6 256 -46 353 -37
67 -120 141 -191 168 -84 32 -209 36 -286 9z m214 -185 c69 -36 111 -159 93
-274 -14 -87 -37 -135 -81 -169 -30 -23 -45 -27 -98 -27 -70 0 -102 17 -141
74 -64 95 -49 307 27 376 48 44 137 53 200 20z"/>
<path d="M8330 5421 c-48 -15 -87 -40 -123 -80 -20 -23 -37 -38 -38 -34 0 5
-1 31 -2 58 l-2 50 -105 0 -105 0 0 -415 0 -415 105 0 105 0 8 265 c7 247 9
268 30 310 60 119 211 119 266 0 13 -28 17 -86 21 -305 l5 -270 108 -3 108 -3
-3 318 -3 318 -28 57 c-33 67 -91 121 -155 142 -47 17 -149 20 -192 7z"/>
<path d="M9080 5417 c-117 -33 -209 -110 -255 -210 -14 -29 -30 -87 -36 -130
-30 -205 60 -391 228 -469 121 -57 294 -49 410 19 74 43 143 136 143 192 0 18
-8 20 -101 23 l-102 3 -24 -38 c-77 -121 -281 -72 -322 78 -6 22 -11 46 -11
52 0 10 67 13 288 15 l287 3 3 39 c5 58 -16 163 -44 223 -35 73 -102 138 -180
175 -54 25 -81 31 -152 34 -52 2 -105 -1 -132 -9z m211 -190 c35 -23 65 -73
71 -117 l3 -25 -172 -2 c-95 -1 -175 3 -178 7 -7 12 21 79 43 104 35 40 75 56
138 56 47 0 69 -5 95 -23z"/>
<path d="M5297 5413 c-2 -5 65 -197 150 -428 145 -392 154 -422 144 -455 -18
-60 -51 -83 -128 -89 l-68 -6 -22 -60 c-36 -99 -35 -102 50 -110 132 -12 245
21 305 90 47 53 52 64 198 478 182 514 204 575 204 582 0 3 -50 4 -112 3
l-112 -3 -88 -275 c-48 -151 -88 -283 -88 -292 0 -9 -4 -20 -10 -23 -5 -3 -10
0 -10 8 0 8 -43 142 -95 298 -52 156 -95 285 -95 287 0 6 -219 1 -223 -5z"/>
</g>
</svg>
